<svg xmlns="http://www.w3.org/2000/svg" width="1280" height="400" viewBox="0 0 1280 400">
<defs>
  <linearGradient id="bg" x1="0" y1="0" x2="1" y2="1">
    <stop offset="0" stop-color="#F6F6F6"/><stop offset="1" stop-color="#EAEAEA"/></linearGradient>
  <radialGradient id="glow" cx="0.5" cy="0.5" r="0.5">
    <stop offset="0" stop-color="#F2711C" stop-opacity="0.24"/>
    <stop offset="1" stop-color="#F2711C" stop-opacity="0"/></radialGradient>
  <clipPath id="up"><polygon points="60.5,326.0 361.5,66.0 361.5,-220 60.5,-220"/></clipPath>
  <clipPath id="lo"><polygon points="60.5,326.0 361.5,66.0 361.5,620 60.5,620"/></clipPath>
</defs>
<rect width="1280" height="400" fill="url(#bg)"/>

<rect x="1044" y="176" width="6" height="40" rx="3" fill="#4A4A4A" opacity="0.100"/>
<rect x="1068" y="168" width="6" height="56" rx="3" fill="#4A4A4A" opacity="0.095"/>
<rect x="1092" y="163" width="6" height="67" rx="3" fill="#4A4A4A" opacity="0.089"/>
<rect x="1116" y="161" width="6" height="70" rx="3" fill="#4A4A4A" opacity="0.084"/>
<rect x="1140" y="164" width="6" height="64" rx="3" fill="#4A4A4A" opacity="0.079"/>
<rect x="1164" y="170" width="6" height="51" rx="3" fill="#4A4A4A" opacity="0.073"/>
<rect x="1188" y="178" width="6" height="35" rx="3" fill="#4A4A4A" opacity="0.068"/>
<rect x="1212" y="186" width="6" height="20" rx="3" fill="#4A4A4A" opacity="0.063"/>
<rect x="1236" y="190" width="6" height="11" rx="3" fill="#4A4A4A" opacity="0.057"/>
<rect x="1260" y="191" width="6" height="11" rx="3" fill="#4A4A4A" opacity="0.052"/>
<rect x="1284" y="187" width="6" height="19" rx="3" fill="#4A4A4A" opacity="0.047"/>
<g clip-path="url(#up)" fill="#F2711C"><rect x="94.5" y="176.2" width="15" height="39.6" rx="7.5"/>
<rect x="120.5" y="156.0" width="15" height="80.0" rx="7.5"/>
<rect x="146.5" y="141.6" width="15" height="108.9" rx="7.5"/>
<rect x="172.5" y="132.9" width="15" height="126.2" rx="7.5"/>
<rect x="198.5" y="115.0" width="15" height="162.0" rx="7.5"/>
<rect x="224.5" y="132.9" width="15" height="126.2" rx="7.5"/>
<rect x="250.5" y="141.6" width="15" height="108.9" rx="7.5"/>
<rect x="276.5" y="156.0" width="15" height="80.0" rx="7.5"/>
<rect x="302.5" y="176.2" width="15" height="39.6" rx="7.5"/></g>
<g clip-path="url(#lo)" fill="#4A4A4A"><rect x="94.5" y="176.2" width="15" height="39.6" rx="7.5"/>
<rect x="120.5" y="156.0" width="15" height="80.0" rx="7.5"/>
<rect x="146.5" y="141.6" width="15" height="108.9" rx="7.5"/>
<rect x="172.5" y="132.9" width="15" height="126.2" rx="7.5"/>
<rect x="198.5" y="115.0" width="15" height="162.0" rx="7.5"/>
<rect x="224.5" y="132.9" width="15" height="126.2" rx="7.5"/>
<rect x="250.5" y="141.6" width="15" height="108.9" rx="7.5"/>
<rect x="276.5" y="156.0" width="15" height="80.0" rx="7.5"/>
<rect x="302.5" y="176.2" width="15" height="39.6" rx="7.5"/></g>
<circle cx="206.0" cy="115.0" r="17" fill="#F2711C"/>
<text x="484" y="178" font-family="Avenir Next, Helvetica Neue, Helvetica, Arial, sans-serif" font-size="68" font-weight="600" fill="#3A3A3A" letter-spacing="-1.5">mast</text>
<text x="486" y="226" font-family="Avenir Next, Helvetica Neue, Helvetica, Arial, sans-serif" font-size="25" font-weight="500" fill="#6A6A6A">Multi-tenant MQTT broker built on core NATS</text>
<rect x="486" y="250" width="52" height="3" rx="1.5" fill="#F2711C"/>
<text x="486" y="292" font-family="Avenir Next, Helvetica Neue, Helvetica, Arial, sans-serif" font-size="18" fill="#8E8E8E">One binary, from an edge box to a clustered fleet.</text>
</svg>